<svg xmlns="http://www.w3.org/2000/svg" width="18.367" height="33.123" viewBox="0 0 18.367 33.123">
  <g id="facebook-logo" transform="translate(-21.577 0.5)">
    <path id="Path_59" data-name="Path 59" d="M38.79.007,34.625,0c-4.68,0-7.7,3.1-7.7,7.906V11.55H22.732a.655.655,0,0,0-.655.655v5.281a.655.655,0,0,0,.655.655H26.92V31.468a.655.655,0,0,0,.655.655H33.04a.655.655,0,0,0,.655-.655V18.142h4.9a.655.655,0,0,0,.655-.655l0-5.281a.655.655,0,0,0-.655-.655h-4.9V8.461c0-1.485.354-2.239,2.289-2.239H38.79a.655.655,0,0,0,.655-.655V.662A.655.655,0,0,0,38.79.007Z" fill="#dbdbdb" stroke="#fff" stroke-width="1"/>
  </g>
</svg>
