<svg xmlns="http://www.w3.org/2000/svg" width="729.5" height="296.802" viewBox="0 0 729.5 296.802">
  <path id="fancy" d="M5364.5,11H4635v-.011a186.522,186.522,0,0,1,9.376-26.67,254.568,254.568,0,0,1,13.7-27.349,248.479,248.479,0,0,1,21.461-31.351,222.168,222.168,0,0,1,71.479-58.7A225.108,225.108,0,0,1,4775.795-144a239.912,239.912,0,0,1,27.873-8.421,265.8,265.8,0,0,1,31.131-5.42,305.471,305.471,0,0,1,34.553-1.918c10.778,0,21.982.538,33.3,1.6,11.72,1.1,23.891,2.789,36.176,5.024,12.7,2.31,25.875,5.267,39.168,8.789,13.715,3.634,27.938,7.972,42.275,12.894,60.707,20.84,102.553,30.546,131.69,30.546,45.642,0,56.8-23.684,72.254-56.464,4.722-10.019,9.605-20.38,16.012-31.329a194.922,194.922,0,0,1,24.521-33.518,195.548,195.548,0,0,1,17.418-16.8,223.8,223.8,0,0,1,21.906-16.4,276.621,276.621,0,0,1,27.181-15.7A360.438,360.438,0,0,1,5364.5-285.8V11Z" transform="translate(-4635 285.801)" fill="#4f5fbe" opacity="0.1"/>
</svg>
