<svg xmlns="http://www.w3.org/2000/svg" width="31" height="21.769" viewBox="0 0 31 21.769">
  <g id="noun_youtube_897675" transform="translate(-17 -27)">
    <path id="Path_60" data-name="Path 60" d="M42.423,27.5H22.577A5.077,5.077,0,0,0,17.5,32.577V43.192a5.077,5.077,0,0,0,5.077,5.077H42.423A5.077,5.077,0,0,0,47.5,43.192V32.577A5.077,5.077,0,0,0,42.423,27.5Zm-3.835,11-9,4.615a.692.692,0,0,1-1.011-.614V33.269a.692.692,0,0,1,1.011-.614l9,4.615a.692.692,0,0,1,0,1.232Z" fill="#dbdbdb" stroke="#fff" stroke-width="1"/>
  </g>
</svg>
