<svg xmlns="http://www.w3.org/2000/svg" width="31.642" height="25.519" viewBox="0 0 31.642 25.519">
  <g id="twitter-logo-silhouette" transform="translate(0.269 -56.79)">
    <g id="Group_40" data-name="Group 40" transform="translate(0.001 57.441)">
      <path id="Path_56" data-name="Path 56" d="M30,60.324a12.29,12.29,0,0,1-3.534.969,6.18,6.18,0,0,0,2.705-3.4,12.407,12.407,0,0,1-3.911,1.494A6.159,6.159,0,0,0,14.775,65a17.472,17.472,0,0,1-12.684-6.43A6.161,6.161,0,0,0,4,66.78a6.155,6.155,0,0,1-2.788-.772v.077a6.16,6.16,0,0,0,4.936,6.035,6.233,6.233,0,0,1-1.622.216,5.907,5.907,0,0,1-1.159-.114,6.157,6.157,0,0,0,5.748,4.274,12.348,12.348,0,0,1-7.643,2.63A13.076,13.076,0,0,1,0,79.041,17.4,17.4,0,0,0,9.434,81.81c11.321,0,17.509-9.377,17.509-17.509l-.021-.8A12.289,12.289,0,0,0,30,60.324Z" transform="translate(-0.001 -57.441)" fill="#dbdbdb" stroke="#fff" stroke-width="1"/>
    </g>
  </g>
</svg>
